<svg xmlns="http://www.w3.org/2000/svg" width="24" height="24" viewBox="0 0 24 24" fill="none" stroke="#4f46e5" stroke-width="1.5" stroke-linecap="round" stroke-linejoin="round">
    <path d="M11 3a5.5 5.5 0 014.12 9.13l-2.62.88a1.5 1.5 0 00-.88 1.5v.69a1.5 1.5 0 001.5 1.5h.31a1.5 1.5 0 001.5-1.5v-.19a.5.5 0 01.5-.5h.5a.5.5 0 01.5.5v.19a1.5 1.5 0 001.5 1.5h.31a1.5 1.5 0 001.5-1.5v-.69a1.5 1.5 0 00-.88-1.5l-2.62-.88A5.5 5.5 0 1111 3z"></path>
    <path d="M12.5 15.5a.5.5 0 00-1 0v6a.5.5 0 001 0v-6z"></path>
</svg>